<?xml version="1.0" encoding="UTF-8"?>
<svg xmlns="http://www.w3.org/2000/svg" xmlns:xlink="http://www.w3.org/1999/xlink" width="400px" height="103px" viewBox="0 0 401 103" version="1.1">
<g id="surface1">
<path style=" stroke:none;fill-rule:nonzero;fill:rgb(45.882353%,80.392158%,73.725492%);fill-opacity:1;" d="M 95.699219 16.414062 C 96.003906 16.414062 96.003906 16.414062 96.316406 16.410156 C 101.425781 16.414062 106.480469 16.824219 111.492188 17.863281 C 111.492188 18.78125 111.054688 19.265625 110.550781 19.992188 C 105.347656 27.859375 104.933594 38.175781 104.253906 47.296875 C 104.242188 47.460938 104.230469 47.625 104.21875 47.792969 C 104.09375 49.453125 103.972656 51.113281 103.859375 52.773438 C 103.625 56.15625 103.339844 59.527344 102.921875 62.890625 C 102.882812 63.1875 102.847656 63.484375 102.808594 63.785156 C 101.613281 73.054688 99.105469 82.3125 92.949219 89.546875 C 92.847656 89.667969 92.746094 89.789062 92.640625 89.914062 C 89.230469 93.953125 84.785156 96.75 79.96875 98.824219 C 79.6875 98.945312 79.410156 99.066406 79.121094 99.191406 C 72.726562 101.773438 65.921875 102.550781 59.105469 103 C 58.707031 79.96875 63.714844 56.957031 78.695312 38.925781 C 79.207031 38.3125 79.710938 37.691406 80.214844 37.074219 C 80.449219 36.789062 80.449219 36.789062 80.6875 36.5 C 81.144531 35.933594 81.601562 35.367188 82.054688 34.796875 C 77.589844 38.410156 72.976562 42.21875 69.539062 46.859375 C 69.324219 47.136719 69.113281 47.414062 68.898438 47.6875 C 56.871094 63.34375 53.800781 81.894531 53.542969 101.144531 C 46.800781 98.5625 40.886719 91.339844 38.015625 84.90625 C 35.949219 80.019531 34.90625 75.097656 34.929688 69.78125 C 34.929688 69.628906 34.929688 69.472656 34.929688 69.3125 C 34.941406 66.644531 35.136719 64.082031 35.695312 61.476562 C 35.734375 61.289062 35.773438 61.105469 35.8125 60.914062 C 36.777344 56.394531 38.363281 52.082031 40.5625 48.019531 C 40.644531 47.871094 40.722656 47.71875 40.804688 47.566406 C 42.824219 43.738281 45.335938 40.34375 48.210938 37.117188 C 48.394531 36.90625 48.582031 36.699219 48.769531 36.480469 C 50.628906 34.378906 52.574219 32.421875 54.785156 30.6875 C 55.058594 30.476562 55.328125 30.261719 55.597656 30.046875 C 58.042969 28.09375 60.558594 26.367188 63.277344 24.820312 C 63.464844 24.714844 63.652344 24.609375 63.84375 24.5 C 73.609375 19.023438 84.546875 16.421875 95.699219 16.414062 Z M 95.699219 16.414062 "/>
<path style=" stroke:none;fill-rule:nonzero;fill:rgb(65.098041%,78.823531%,19.607843%);fill-opacity:1;" d="M 45.921875 7.195312 C 46.355469 7.421875 46.792969 7.644531 47.230469 7.863281 C 49.46875 9.003906 51.511719 10.363281 53.542969 11.832031 C 53.675781 11.925781 53.804688 12.019531 53.941406 12.113281 C 55.40625 13.171875 56.78125 14.289062 58.109375 15.515625 C 58.589844 15.957031 59.078125 16.382812 59.570312 16.804688 C 60.703125 17.792969 61.8125 18.828125 62.816406 19.949219 C 62.816406 20.105469 62.816406 20.257812 62.816406 20.414062 C 62.6875 20.484375 62.558594 20.554688 62.425781 20.625 C 59.683594 22.132812 57.105469 23.710938 54.652344 25.65625 C 54.261719 25.964844 53.863281 26.261719 53.464844 26.558594 C 50.722656 28.589844 48.277344 30.96875 45.894531 33.40625 C 45.664062 33.636719 45.429688 33.871094 45.199219 34.101562 C 44.203125 33.148438 43.34375 32.113281 42.476562 31.042969 C 41.371094 29.683594 40.25 28.363281 39.050781 27.09375 C 38.710938 26.679688 38.710938 26.679688 38.710938 26.214844 C 38.554688 26.214844 38.402344 26.214844 38.246094 26.214844 C 38.246094 26.0625 38.246094 25.90625 38.246094 25.75 C 38.09375 25.75 37.941406 25.75 37.78125 25.75 C 37.390625 25.289062 37.003906 24.824219 36.625 24.359375 C 36.46875 24.28125 36.316406 24.203125 36.160156 24.125 C 36.160156 23.972656 36.160156 23.820312 36.160156 23.664062 C 35.96875 23.582031 35.96875 23.582031 35.777344 23.503906 C 35.074219 23.109375 34.535156 22.578125 33.957031 22.023438 C 32.605469 20.75 31.175781 19.640625 29.667969 18.558594 C 29.769531 18.671875 29.871094 18.78125 29.972656 18.898438 C 30.101562 19.042969 30.230469 19.191406 30.363281 19.339844 C 30.492188 19.488281 30.621094 19.632812 30.757812 19.78125 C 31.058594 20.183594 31.058594 20.183594 31.058594 20.644531 C 31.214844 20.644531 31.367188 20.644531 31.523438 20.644531 C 32.15625 21.320312 32.714844 22.058594 33.285156 22.785156 C 33.503906 23.0625 33.726562 23.34375 33.945312 23.621094 C 36.757812 27.148438 39.246094 30.910156 41.492188 34.828125 C 41.589844 34.996094 41.6875 35.164062 41.792969 35.335938 C 42.148438 35.976562 42.414062 36.5 42.4375 37.242188 C 42.0625 38.09375 41.527344 38.785156 40.96875 39.523438 C 35.984375 46.378906 32.777344 54.3125 31.292969 62.636719 C 31.246094 62.886719 31.246094 62.886719 31.199219 63.144531 C 30.085938 69.648438 30.847656 76.304688 32.683594 82.585938 C 31.484375 82.449219 30.527344 82.070312 29.453125 81.554688 C 29.195312 81.433594 29.195312 81.433594 28.933594 81.308594 C 20.917969 77.382812 15.117188 70.359375 12.148438 62.011719 C 9.15625 53.234375 8.289062 44.226562 7.597656 35.039062 C 7.574219 34.710938 7.550781 34.378906 7.523438 34.050781 C 7.414062 32.578125 7.304688 31.105469 7.199219 29.632812 C 6.972656 26.378906 6.691406 23.144531 6.265625 19.914062 C 6.226562 19.636719 6.191406 19.359375 6.152344 19.074219 C 5.378906 13.464844 3.96875 6.902344 0.246094 2.425781 C 0 2.085938 0 2.085938 0 1.625 C 15.25 -1.832031 32.035156 -0.113281 45.921875 7.195312 Z M 28.742188 17.863281 C 28.820312 18.015625 28.894531 18.167969 28.972656 18.328125 C 29.128906 18.25 29.28125 18.171875 29.4375 18.09375 C 29.207031 18.019531 28.980469 17.941406 28.742188 17.863281 Z M 28.742188 17.863281 "/>
<path style=" stroke:none;fill-rule:nonzero;fill:rgb(0%,0%,0%);fill-opacity:1;" d="M 309.425781 25.425781 C 312.6875 25.472656 312.6875 25.472656 313.796875 26.578125 C 314.480469 27.535156 314.933594 28.59375 315.378906 29.679688 C 315.960938 30.96875 316.773438 32.113281 317.554688 33.289062 C 317.871094 33.785156 318.1875 34.28125 318.503906 34.777344 C 319.300781 36.023438 320.105469 37.265625 320.914062 38.507812 C 322.207031 40.492188 323.480469 42.484375 324.753906 44.476562 C 325.707031 45.972656 326.667969 47.460938 327.636719 48.949219 C 328.765625 50.683594 329.886719 52.421875 331 54.167969 C 332.496094 56.511719 334.003906 58.847656 335.519531 61.175781 C 336.074219 62.023438 336.621094 62.875 337.171875 63.722656 C 337.273438 63.878906 337.375 64.035156 337.476562 64.199219 C 337.683594 64.515625 337.886719 64.835938 338.09375 65.152344 C 338.679688 66.058594 339.265625 66.964844 339.851562 67.871094 C 340.066406 68.203125 340.28125 68.535156 340.496094 68.871094 C 340.652344 69.109375 340.808594 69.347656 340.964844 69.59375 C 340.992188 67.433594 340.96875 65.277344 340.882812 63.117188 C 340.730469 59.144531 340.699219 55.179688 340.703125 51.203125 C 340.703125 50.3125 340.703125 49.421875 340.703125 48.53125 C 340.703125 47.042969 340.703125 45.558594 340.703125 44.070312 C 340.707031 42.351562 340.703125 40.636719 340.703125 38.917969 C 340.703125 37.429688 340.703125 35.945312 340.703125 34.457031 C 340.703125 33.574219 340.703125 32.691406 340.703125 31.808594 C 340.703125 30.832031 340.703125 29.855469 340.703125 28.878906 C 340.703125 28.585938 340.703125 28.296875 340.703125 27.996094 C 340.703125 27.730469 340.703125 27.46875 340.703125 27.195312 C 340.703125 26.851562 340.703125 26.851562 340.703125 26.5 C 340.734375 25.980469 340.734375 25.980469 340.964844 25.75 C 341.480469 25.730469 341.996094 25.726562 342.507812 25.726562 C 342.742188 25.726562 342.742188 25.726562 342.976562 25.726562 C 343.46875 25.730469 343.964844 25.734375 344.457031 25.734375 C 344.792969 25.738281 345.125 25.738281 345.460938 25.738281 C 346.28125 25.742188 347.097656 25.746094 347.917969 25.75 C 347.925781 32.78125 347.929688 39.808594 347.929688 46.839844 C 347.933594 47.667969 347.933594 48.496094 347.933594 49.328125 C 347.933594 49.574219 347.933594 49.574219 347.933594 49.828125 C 347.933594 52.503906 347.933594 55.179688 347.9375 57.855469 C 347.941406 60.597656 347.941406 63.34375 347.941406 66.085938 C 347.941406 67.628906 347.941406 69.171875 347.945312 70.710938 C 347.945312 72.160156 347.945312 73.609375 347.945312 75.0625 C 347.945312 75.59375 347.945312 76.128906 347.949219 76.660156 C 347.949219 77.386719 347.949219 78.113281 347.949219 78.835938 C 347.949219 79.160156 347.949219 79.160156 347.949219 79.488281 C 347.945312 80.933594 347.945312 80.933594 347.6875 81.195312 C 340.964844 82.316406 340.964844 82.316406 338.621094 80.695312 C 337.378906 79.320312 336.597656 77.675781 335.820312 76.011719 C 335.167969 74.636719 334.300781 73.394531 333.460938 72.132812 C 333.152344 71.652344 332.847656 71.171875 332.539062 70.6875 C 331.417969 68.925781 330.28125 67.171875 329.144531 65.417969 C 327.503906 62.890625 325.878906 60.355469 324.257812 57.820312 C 322.957031 55.785156 321.648438 53.757812 320.335938 51.730469 C 318.710938 49.222656 317.09375 46.707031 315.488281 44.1875 C 314.324219 42.367188 313.148438 40.554688 311.96875 38.746094 C 311.851562 38.566406 311.734375 38.390625 311.617188 38.207031 C 311.515625 38.050781 311.414062 37.894531 311.308594 37.734375 C 311.066406 37.347656 311.066406 37.347656 310.832031 36.886719 C 310.808594 38.242188 310.820312 39.59375 310.914062 40.949219 C 311.15625 44.613281 311.097656 48.292969 311.097656 51.964844 C 311.09375 52.984375 311.097656 54.007812 311.097656 55.027344 C 311.097656 56.738281 311.097656 58.445312 311.09375 60.15625 C 311.09375 62.132812 311.09375 64.109375 311.09375 66.085938 C 311.097656 67.789062 311.097656 69.492188 311.097656 71.195312 C 311.09375 72.210938 311.09375 73.226562 311.097656 74.242188 C 311.097656 75.191406 311.097656 76.140625 311.09375 77.089844 C 311.09375 77.441406 311.09375 77.789062 311.09375 78.140625 C 311.097656 78.613281 311.09375 79.089844 311.09375 79.5625 C 311.09375 79.828125 311.09375 80.09375 311.09375 80.371094 C 311.066406 80.960938 311.066406 80.960938 310.832031 81.195312 C 310.339844 81.21875 309.84375 81.222656 309.347656 81.222656 C 309.046875 81.226562 308.746094 81.226562 308.433594 81.226562 C 308.277344 81.226562 308.117188 81.222656 307.957031 81.222656 C 307.472656 81.222656 306.992188 81.222656 306.507812 81.226562 C 306.058594 81.226562 306.058594 81.226562 305.597656 81.222656 C 305.316406 81.222656 305.039062 81.222656 304.75 81.222656 C 304.109375 81.195312 304.109375 81.195312 303.878906 80.960938 C 303.855469 80.253906 303.847656 79.554688 303.851562 78.847656 C 303.847656 78.625 303.847656 78.398438 303.847656 78.167969 C 303.847656 77.410156 303.847656 76.652344 303.847656 75.890625 C 303.847656 75.351562 303.847656 74.808594 303.847656 74.269531 C 303.847656 72.792969 303.847656 71.320312 303.847656 69.84375 C 303.847656 68.460938 303.847656 67.078125 303.847656 65.691406 C 303.847656 62.785156 303.847656 59.878906 303.847656 56.96875 C 303.851562 54.472656 303.851562 51.972656 303.847656 49.476562 C 303.847656 46.578125 303.847656 43.683594 303.847656 40.785156 C 303.847656 39.25 303.847656 37.714844 303.847656 36.179688 C 303.847656 34.738281 303.847656 33.296875 303.847656 31.855469 C 303.847656 31.324219 303.847656 30.792969 303.847656 30.261719 C 303.847656 29.539062 303.847656 28.816406 303.851562 28.09375 C 303.847656 27.777344 303.847656 27.777344 303.847656 27.449219 C 303.855469 24.75 307.199219 25.445312 309.425781 25.425781 Z M 309.425781 25.425781 "/>
<path style=" stroke:none;fill-rule:nonzero;fill:rgb(0%,0%,0%);fill-opacity:1;" d="M 233.414062 30.390625 C 233.605469 30.539062 233.800781 30.6875 233.996094 30.839844 C 239.019531 35.019531 241.328125 42.289062 241.953125 48.5625 C 242.046875 50.0625 242.046875 51.5625 242.046875 53.066406 C 242.050781 53.246094 242.050781 53.425781 242.050781 53.613281 C 242.039062 61.871094 239.992188 69.582031 234.140625 75.667969 C 229.191406 80.476562 222.519531 82.023438 215.800781 81.972656 C 209.035156 81.816406 203.023438 80.015625 198.183594 75.164062 C 198.03125 75.027344 197.878906 74.890625 197.722656 74.753906 C 193.316406 70.753906 191.496094 63.679688 190.996094 57.996094 C 190.960938 57.285156 190.953125 56.578125 190.949219 55.867188 C 190.949219 55.667969 190.945312 55.46875 190.945312 55.265625 C 190.941406 54.851562 190.941406 54.433594 190.941406 54.015625 C 190.9375 53.394531 190.929688 52.773438 190.925781 52.152344 C 190.902344 48.605469 191.246094 45.109375 192.316406 41.714844 C 192.375 41.523438 192.433594 41.332031 192.492188 41.136719 C 193.109375 39.222656 193.957031 37.472656 194.9375 35.726562 C 195.058594 35.5 195.179688 35.273438 195.300781 35.042969 C 196.863281 32.335938 199.425781 29.867188 202.121094 28.300781 C 202.25 28.226562 202.378906 28.152344 202.511719 28.074219 C 211.75 22.808594 225.246094 23.410156 233.414062 30.390625 Z M 204.503906 35.882812 C 199.789062 40.714844 198.785156 47.507812 198.808594 53.996094 C 198.914062 60.289062 200.300781 66.867188 204.902344 71.449219 C 208.8125 74.800781 213.847656 75.425781 218.8125 75.164062 C 222.863281 74.777344 226.785156 73.183594 229.445312 70.019531 C 234.203125 63.660156 234.714844 55.109375 233.742188 47.484375 C 233.167969 43.734375 231.890625 40.222656 229.707031 37.117188 C 229.605469 36.96875 229.503906 36.820312 229.398438 36.671875 C 227.375 34.023438 223.851562 32.402344 220.640625 31.859375 C 214.839844 31.171875 208.941406 31.648438 204.503906 35.882812 Z M 204.503906 35.882812 "/>
<path style=" stroke:none;fill-rule:nonzero;fill:rgb(0%,0%,0%);fill-opacity:1;" d="M 257.367188 25.710938 C 257.546875 25.710938 257.722656 25.710938 257.90625 25.710938 C 258.503906 25.707031 259.097656 25.703125 259.691406 25.703125 C 260.105469 25.703125 260.523438 25.699219 260.9375 25.699219 C 261.8125 25.695312 262.6875 25.695312 263.5625 25.695312 C 264.671875 25.691406 265.78125 25.6875 266.890625 25.679688 C 267.75 25.675781 268.609375 25.675781 269.472656 25.675781 C 269.878906 25.675781 270.285156 25.671875 270.695312 25.667969 C 276.402344 25.628906 282.773438 26.359375 287.046875 30.550781 C 290.683594 34.300781 291.253906 38.667969 291.191406 43.675781 C 291.082031 47.710938 289.402344 51.738281 286.507812 54.589844 C 281.242188 59.410156 274.117188 59.949219 267.34375 59.878906 C 266.925781 59.878906 266.511719 59.875 266.09375 59.875 C 265.089844 59.867188 264.085938 59.859375 263.082031 59.851562 C 263.085938 60.117188 263.085938 60.378906 263.085938 60.652344 C 263.089844 63.132812 263.09375 65.613281 263.097656 68.097656 C 263.097656 69.371094 263.097656 70.648438 263.101562 71.925781 C 263.105469 73.15625 263.105469 74.386719 263.105469 75.617188 C 263.105469 76.085938 263.105469 76.558594 263.109375 77.027344 C 263.109375 77.683594 263.109375 78.339844 263.109375 78.996094 C 263.109375 79.195312 263.113281 79.390625 263.113281 79.59375 C 263.109375 80.933594 263.109375 80.933594 262.851562 81.195312 C 262.324219 81.21875 261.792969 81.222656 261.265625 81.222656 C 261.027344 81.226562 261.027344 81.226562 260.785156 81.226562 C 260.449219 81.226562 260.113281 81.226562 259.777344 81.222656 C 259.261719 81.222656 258.746094 81.222656 258.230469 81.226562 C 257.902344 81.226562 257.578125 81.226562 257.253906 81.222656 C 256.953125 81.222656 256.65625 81.222656 256.347656 81.222656 C 255.667969 81.195312 255.667969 81.195312 255.433594 80.960938 C 255.410156 80.253906 255.402344 79.554688 255.40625 78.847656 C 255.40625 78.625 255.40625 78.398438 255.402344 78.167969 C 255.402344 77.410156 255.402344 76.652344 255.40625 75.890625 C 255.40625 75.351562 255.402344 74.808594 255.402344 74.269531 C 255.402344 72.792969 255.402344 71.320312 255.402344 69.84375 C 255.402344 68.460938 255.402344 67.078125 255.402344 65.691406 C 255.402344 62.785156 255.402344 59.878906 255.40625 56.96875 C 255.40625 54.472656 255.40625 51.972656 255.40625 49.476562 C 255.402344 46.578125 255.402344 43.683594 255.402344 40.785156 C 255.402344 39.25 255.402344 37.714844 255.402344 36.179688 C 255.402344 34.738281 255.402344 33.296875 255.402344 31.855469 C 255.40625 31.324219 255.40625 30.792969 255.402344 30.261719 C 255.402344 29.539062 255.402344 28.816406 255.40625 28.09375 C 255.40625 27.777344 255.40625 27.777344 255.402344 27.449219 C 255.410156 25.617188 255.671875 25.714844 257.367188 25.710938 Z M 263.082031 32.246094 C 263.082031 39.136719 263.082031 46.023438 263.082031 53.125 C 272.523438 53.558594 272.523438 53.558594 280.859375 49.804688 C 282.949219 47.375 283.605469 44.59375 283.441406 41.417969 C 283.175781 38.988281 282.449219 36.882812 280.65625 35.160156 C 275.871094 31.3125 268.648438 32.246094 263.082031 32.246094 Z M 263.082031 32.246094 "/>
<path style=" stroke:none;fill-rule:nonzero;fill:rgb(0%,0%,0%);fill-opacity:1;" d="M 152.570312 25.722656 C 152.796875 25.722656 153.027344 25.722656 153.261719 25.722656 C 153.523438 25.722656 153.785156 25.722656 154.054688 25.722656 C 154.488281 25.722656 154.488281 25.722656 154.933594 25.722656 C 155.234375 25.722656 155.539062 25.722656 155.851562 25.722656 C 156.683594 25.722656 157.519531 25.726562 158.351562 25.726562 C 159.222656 25.726562 160.089844 25.726562 160.960938 25.726562 C 162.609375 25.730469 164.257812 25.730469 165.90625 25.734375 C 167.78125 25.734375 169.65625 25.738281 171.535156 25.738281 C 175.394531 25.742188 179.253906 25.746094 183.117188 25.75 C 183.117188 27.96875 183.117188 30.191406 183.117188 32.476562 C 175.3125 32.476562 167.511719 32.476562 159.472656 32.476562 C 159.472656 38.601562 159.472656 44.726562 159.472656 51.035156 C 161.058594 51.035156 162.648438 51.03125 164.28125 51.027344 C 165.285156 51.027344 166.285156 51.027344 167.289062 51.023438 C 168.882812 51.023438 170.476562 51.023438 172.066406 51.019531 C 173.351562 51.015625 174.632812 51.015625 175.917969 51.015625 C 176.410156 51.011719 176.898438 51.011719 177.390625 51.011719 C 178.074219 51.011719 178.761719 51.007812 179.445312 51.007812 C 179.652344 51.007812 179.855469 51.007812 180.066406 51.007812 C 181.464844 51.007812 181.464844 51.007812 181.726562 51.269531 C 181.746094 51.746094 181.753906 52.226562 181.753906 52.703125 C 181.757812 52.996094 181.757812 53.285156 181.757812 53.585938 C 181.757812 53.738281 181.753906 53.890625 181.753906 54.046875 C 181.753906 54.515625 181.753906 54.980469 181.757812 55.445312 C 181.757812 55.882812 181.757812 55.882812 181.753906 56.328125 C 181.753906 56.597656 181.753906 56.867188 181.753906 57.144531 C 181.726562 57.761719 181.726562 57.761719 181.492188 57.996094 C 180.808594 58.019531 180.128906 58.023438 179.445312 58.023438 C 179.230469 58.023438 179.015625 58.023438 178.792969 58.023438 C 178.082031 58.023438 177.367188 58.019531 176.652344 58.019531 C 176.160156 58.019531 175.667969 58.015625 175.171875 58.015625 C 173.871094 58.015625 172.570312 58.015625 171.269531 58.011719 C 169.941406 58.007812 168.617188 58.007812 167.289062 58.007812 C 164.683594 58.003906 162.078125 58 159.472656 57.996094 C 159.472656 58.28125 159.472656 58.570312 159.472656 58.867188 C 159.480469 61.566406 159.484375 64.265625 159.484375 66.964844 C 159.484375 68.355469 159.488281 69.742188 159.492188 71.132812 C 159.492188 72.46875 159.496094 73.808594 159.496094 75.148438 C 159.496094 75.660156 159.496094 76.171875 159.496094 76.683594 C 159.5 77.398438 159.5 78.113281 159.5 78.828125 C 159.5 79.042969 159.5 79.253906 159.5 79.476562 C 159.5 80.933594 159.5 80.933594 159.242188 81.195312 C 158.710938 81.21875 158.183594 81.222656 157.65625 81.222656 C 157.417969 81.226562 157.417969 81.226562 157.175781 81.226562 C 156.839844 81.226562 156.503906 81.226562 156.167969 81.222656 C 155.652344 81.222656 155.132812 81.222656 154.617188 81.226562 C 154.292969 81.226562 153.96875 81.226562 153.640625 81.222656 C 153.34375 81.222656 153.046875 81.222656 152.738281 81.222656 C 152.054688 81.195312 152.054688 81.195312 151.824219 80.960938 C 151.800781 80.253906 151.792969 79.554688 151.792969 78.847656 C 151.792969 78.625 151.792969 78.398438 151.792969 78.167969 C 151.792969 77.410156 151.792969 76.652344 151.792969 75.890625 C 151.792969 75.351562 151.792969 74.808594 151.792969 74.269531 C 151.792969 72.792969 151.792969 71.320312 151.792969 69.84375 C 151.792969 68.460938 151.792969 67.078125 151.792969 65.691406 C 151.792969 62.785156 151.792969 59.878906 151.792969 56.96875 C 151.792969 54.472656 151.792969 51.972656 151.792969 49.476562 C 151.792969 46.578125 151.792969 43.683594 151.792969 40.785156 C 151.792969 39.25 151.792969 37.714844 151.792969 36.179688 C 151.792969 34.738281 151.792969 33.296875 151.792969 31.855469 C 151.792969 31.324219 151.792969 30.792969 151.792969 30.261719 C 151.792969 29.539062 151.792969 28.816406 151.792969 28.09375 C 151.792969 27.777344 151.792969 27.777344 151.792969 27.449219 C 151.796875 25.765625 151.796875 25.765625 152.570312 25.722656 Z M 152.570312 25.722656 "/>
<path style=" stroke:none;fill-rule:nonzero;fill:rgb(0%,0%,0%);fill-opacity:1;" d="M 364.375 25.75 C 366.824219 25.75 369.273438 25.75 371.792969 25.75 C 371.792969 41.75 371.792969 57.75 371.792969 74.234375 C 379.671875 74.234375 387.550781 74.234375 395.667969 74.234375 C 395.667969 76.453125 395.667969 78.675781 395.667969 80.960938 C 395.273438 81.355469 394.769531 81.222656 394.230469 81.222656 C 393.96875 81.222656 393.707031 81.222656 393.441406 81.226562 C 393.148438 81.226562 392.859375 81.222656 392.5625 81.222656 C 392.261719 81.222656 391.957031 81.222656 391.644531 81.226562 C 390.8125 81.226562 389.980469 81.226562 389.148438 81.226562 C 388.28125 81.222656 387.410156 81.226562 386.542969 81.226562 C 385.082031 81.226562 383.621094 81.226562 382.160156 81.222656 C 380.472656 81.222656 378.78125 81.222656 377.089844 81.222656 C 375.644531 81.226562 374.195312 81.226562 372.746094 81.226562 C 371.878906 81.222656 371.011719 81.222656 370.148438 81.226562 C 369.179688 81.226562 368.214844 81.226562 367.25 81.222656 C 366.960938 81.222656 366.671875 81.226562 366.375 81.226562 C 365.980469 81.222656 365.980469 81.222656 365.582031 81.222656 C 365.355469 81.222656 365.125 81.222656 364.890625 81.222656 C 364.375 81.195312 364.375 81.195312 364.144531 80.960938 C 364.121094 80.253906 364.113281 79.554688 364.117188 78.847656 C 364.117188 78.625 364.113281 78.398438 364.113281 78.167969 C 364.113281 77.410156 364.113281 76.652344 364.113281 75.890625 C 364.113281 75.351562 364.113281 74.808594 364.113281 74.269531 C 364.113281 72.792969 364.113281 71.320312 364.113281 69.84375 C 364.113281 68.460938 364.113281 67.078125 364.113281 65.691406 C 364.113281 62.785156 364.113281 59.878906 364.113281 56.96875 C 364.117188 54.472656 364.117188 51.972656 364.113281 49.476562 C 364.113281 46.578125 364.113281 43.683594 364.113281 40.785156 C 364.113281 39.25 364.113281 37.714844 364.113281 36.179688 C 364.113281 34.738281 364.113281 33.296875 364.113281 31.855469 C 364.113281 31.324219 364.113281 30.792969 364.113281 30.261719 C 364.113281 29.539062 364.113281 28.816406 364.117188 28.09375 C 364.113281 27.777344 364.113281 27.777344 364.113281 27.449219 C 364.117188 26.007812 364.117188 26.007812 364.375 25.75 Z M 364.375 25.75 "/>
</g>
</svg>
